<svg width="137" height="104" viewBox="0 0 137 104" fill="none" xmlns="http://www.w3.org/2000/svg">
<g opacity="0.5">
<path d="M65.6536 58.6665C78.9084 58.6665 89.6536 47.9213 89.6536 34.6665C89.6536 21.4117 78.9084 10.6665 65.6536 10.6665C52.3987 10.6665 41.6536 21.4117 41.6536 34.6665C41.6536 47.9213 52.3987 58.6665 65.6536 58.6665Z" stroke="#62748E" stroke-width="5.33333" stroke-linecap="round" stroke-linejoin="round"/>
<path d="M74.5869 12.4L79.7869 7.19996C80.9912 6.00145 82.6212 5.32861 84.3202 5.32861C86.0193 5.32861 87.6493 6.00145 88.8536 7.19996L93.1202 11.4666C93.7169 12.0612 94.1903 12.7677 94.5133 13.5457C94.8363 14.3236 95.0026 15.1576 95.0026 16C95.0026 16.8423 94.8363 17.6763 94.5133 18.4543C94.1903 19.2322 93.7169 19.9387 93.1202 20.5333L87.9202 25.7333" stroke="#62748E" stroke-width="5.33333" stroke-linecap="round" stroke-linejoin="round"/>
<path d="M94.9871 5.3335L90.9871 9.3335" stroke="#62748E" stroke-width="5.33333" stroke-linecap="round" stroke-linejoin="round"/>
</g>
<path d="M0.846591 97.5V85.8636H4.77841C5.69129 85.8636 6.4375 86.0284 7.01705 86.358C7.60038 86.6837 8.0322 87.125 8.3125 87.6818C8.5928 88.2386 8.73295 88.8598 8.73295 89.5455C8.73295 90.2311 8.5928 90.8542 8.3125 91.4148C8.03599 91.9754 7.60796 92.4223 7.02841 92.7557C6.44886 93.0852 5.70644 93.25 4.80114 93.25H1.98295V92H4.75568C5.38068 92 5.88258 91.892 6.26136 91.6761C6.64015 91.4602 6.91477 91.1686 7.08523 90.8011C7.25947 90.4299 7.34659 90.0114 7.34659 89.5455C7.34659 89.0795 7.25947 88.6629 7.08523 88.2955C6.91477 87.928 6.63826 87.6402 6.25568 87.4318C5.87311 87.2197 5.36553 87.1136 4.73295 87.1136H2.25568V97.5H0.846591ZM11.8494 85.8636V97.5H10.5085V85.8636H11.8494ZM16.5611 97.7045C16.008 97.7045 15.5062 97.6004 15.0554 97.392C14.6046 97.1799 14.2467 96.875 13.9815 96.4773C13.7164 96.0758 13.5838 95.5909 13.5838 95.0227C13.5838 94.5227 13.6823 94.1174 13.8793 93.8068C14.0762 93.4924 14.3395 93.2462 14.669 93.0682C14.9986 92.8902 15.3622 92.7576 15.7599 92.6705C16.1615 92.5795 16.5649 92.5076 16.9702 92.4545C17.5005 92.3864 17.9304 92.3352 18.2599 92.3011C18.5933 92.2633 18.8357 92.2008 18.9872 92.1136C19.1425 92.0265 19.2202 91.875 19.2202 91.6591V91.6136C19.2202 91.053 19.0668 90.6174 18.7599 90.3068C18.4569 89.9962 17.9967 89.8409 17.3793 89.8409C16.7391 89.8409 16.2372 89.9811 15.8736 90.2614C15.5099 90.5417 15.2543 90.8409 15.1065 91.1591L13.8338 90.7045C14.0611 90.1742 14.3641 89.7614 14.7429 89.4659C15.1255 89.1667 15.5421 88.9583 15.9929 88.8409C16.4474 88.7197 16.8944 88.6591 17.3338 88.6591C17.6141 88.6591 17.9361 88.6932 18.2997 88.7614C18.6671 88.8258 19.0213 88.9602 19.3622 89.1648C19.7069 89.3693 19.9929 89.678 20.2202 90.0909C20.4474 90.5038 20.5611 91.0568 20.5611 91.75V97.5H19.2202V96.3182H19.152C19.0611 96.5076 18.9096 96.7102 18.6974 96.9261C18.4853 97.142 18.2031 97.3258 17.8509 97.4773C17.4986 97.6288 17.0687 97.7045 16.5611 97.7045ZM16.7656 96.5C17.2959 96.5 17.7429 96.3958 18.1065 96.1875C18.474 95.9792 18.7505 95.7102 18.9361 95.3807C19.1255 95.0511 19.2202 94.7045 19.2202 94.3409V93.1136C19.1634 93.1818 19.0384 93.2443 18.8452 93.3011C18.6558 93.3542 18.4361 93.4015 18.1861 93.4432C17.9399 93.4811 17.6993 93.5152 17.4645 93.5455C17.2334 93.572 17.0459 93.5947 16.902 93.6136C16.5535 93.6591 16.2277 93.733 15.9247 93.8352C15.6255 93.9337 15.383 94.0833 15.1974 94.2841C15.0156 94.4811 14.9247 94.75 14.9247 95.0909C14.9247 95.5568 15.0971 95.9091 15.4418 96.1477C15.7902 96.3826 16.2315 96.5 16.7656 96.5ZM26.2415 97.6818C25.4233 97.6818 24.7188 97.4886 24.1278 97.1023C23.5369 96.7159 23.0824 96.1837 22.7642 95.5057C22.446 94.8277 22.2869 94.053 22.2869 93.1818C22.2869 92.2955 22.4498 91.5133 22.7756 90.8352C23.1051 90.1534 23.5634 89.6212 24.1506 89.2386C24.7415 88.8523 25.4309 88.6591 26.2188 88.6591C26.8324 88.6591 27.3854 88.7727 27.8778 89C28.3703 89.2273 28.7737 89.5455 29.0881 89.9545C29.4025 90.3636 29.5975 90.8409 29.6733 91.3864H28.3324C28.2301 90.9886 28.0028 90.6364 27.6506 90.3295C27.3021 90.0189 26.8324 89.8636 26.2415 89.8636C25.7188 89.8636 25.2604 90 24.8665 90.2727C24.4763 90.5417 24.1714 90.9223 23.9517 91.4148C23.7358 91.9034 23.6278 92.4773 23.6278 93.1364C23.6278 93.8106 23.7339 94.3977 23.946 94.8977C24.1619 95.3977 24.465 95.786 24.8551 96.0625C25.2491 96.339 25.7112 96.4773 26.2415 96.4773C26.59 96.4773 26.9062 96.4167 27.1903 96.2955C27.4744 96.1742 27.715 96 27.9119 95.7727C28.1089 95.5455 28.2491 95.2727 28.3324 94.9545H29.6733C29.5975 95.4697 29.41 95.9337 29.1108 96.3466C28.8153 96.7557 28.4233 97.0814 27.9347 97.3239C27.4498 97.5625 26.8854 97.6818 26.2415 97.6818ZM34.9801 97.6818C34.1392 97.6818 33.4138 97.4962 32.804 97.125C32.1979 96.75 31.7301 96.2273 31.4006 95.5568C31.0748 94.8826 30.9119 94.0985 30.9119 93.2045C30.9119 92.3106 31.0748 91.5227 31.4006 90.8409C31.7301 90.1553 32.1884 89.6212 32.7756 89.2386C33.3665 88.8523 34.0559 88.6591 34.8438 88.6591C35.2983 88.6591 35.7472 88.7348 36.1903 88.8864C36.6335 89.0379 37.0369 89.2841 37.4006 89.625C37.7642 89.9621 38.054 90.4091 38.2699 90.9659C38.4858 91.5227 38.5938 92.2083 38.5938 93.0227V93.5909H31.8665V92.4318H37.2301C37.2301 91.9394 37.1316 91.5 36.9347 91.1136C36.7415 90.7273 36.465 90.4223 36.1051 90.1989C35.7491 89.9754 35.3286 89.8636 34.8438 89.8636C34.3097 89.8636 33.8475 89.9962 33.4574 90.2614C33.071 90.5227 32.7737 90.8636 32.5653 91.2841C32.357 91.7045 32.2528 92.1553 32.2528 92.6364V93.4091C32.2528 94.0682 32.3665 94.6269 32.5938 95.0852C32.8248 95.5398 33.1449 95.8864 33.554 96.125C33.9631 96.3598 34.4384 96.4773 34.9801 96.4773C35.3324 96.4773 35.6506 96.428 35.9347 96.3295C36.2225 96.2273 36.4706 96.0758 36.679 95.875C36.8873 95.6705 37.0483 95.4167 37.1619 95.1136L38.4574 95.4773C38.321 95.9167 38.0919 96.303 37.7699 96.6364C37.4479 96.9659 37.0502 97.2235 36.5767 97.4091C36.1032 97.5909 35.571 97.6818 34.9801 97.6818ZM47.0767 97.7045C46.5237 97.7045 46.0218 97.6004 45.571 97.392C45.1203 97.1799 44.7623 96.875 44.4972 96.4773C44.232 96.0758 44.0994 95.5909 44.0994 95.0227C44.0994 94.5227 44.1979 94.1174 44.3949 93.8068C44.5919 93.4924 44.8551 93.2462 45.1847 93.0682C45.5142 92.8902 45.8778 92.7576 46.2756 92.6705C46.6771 92.5795 47.0805 92.5076 47.4858 92.4545C48.0161 92.3864 48.446 92.3352 48.7756 92.3011C49.1089 92.2633 49.3513 92.2008 49.5028 92.1136C49.6581 92.0265 49.7358 91.875 49.7358 91.6591V91.6136C49.7358 91.053 49.5824 90.6174 49.2756 90.3068C48.9725 89.9962 48.5123 89.8409 47.8949 89.8409C47.2547 89.8409 46.7528 89.9811 46.3892 90.2614C46.0256 90.5417 45.7699 90.8409 45.6222 91.1591L44.3494 90.7045C44.5767 90.1742 44.8797 89.7614 45.2585 89.4659C45.6411 89.1667 46.0578 88.9583 46.5085 88.8409C46.9631 88.7197 47.41 88.6591 47.8494 88.6591C48.1297 88.6591 48.4517 88.6932 48.8153 88.7614C49.1828 88.8258 49.5369 88.9602 49.8778 89.1648C50.2225 89.3693 50.5085 89.678 50.7358 90.0909C50.9631 90.5038 51.0767 91.0568 51.0767 91.75V97.5H49.7358V96.3182H49.6676C49.5767 96.5076 49.4252 96.7102 49.2131 96.9261C49.0009 97.142 48.7188 97.3258 48.3665 97.4773C48.0142 97.6288 47.5843 97.7045 47.0767 97.7045ZM47.2812 96.5C47.8116 96.5 48.2585 96.3958 48.6222 96.1875C48.9896 95.9792 49.2661 95.7102 49.4517 95.3807C49.6411 95.0511 49.7358 94.7045 49.7358 94.3409V93.1136C49.679 93.1818 49.554 93.2443 49.3608 93.3011C49.1714 93.3542 48.9517 93.4015 48.7017 93.4432C48.4555 93.4811 48.215 93.5152 47.9801 93.5455C47.7491 93.572 47.5616 93.5947 47.4176 93.6136C47.0691 93.6591 46.7434 93.733 46.4403 93.8352C46.1411 93.9337 45.8987 94.0833 45.7131 94.2841C45.5313 94.4811 45.4403 94.75 45.4403 95.0909C45.4403 95.5568 45.6127 95.9091 45.9574 96.1477C46.3059 96.3826 46.7472 96.5 47.2812 96.5ZM57.581 97.5V85.8636H58.9219V90.1591H59.0355C59.134 90.0076 59.2704 89.8144 59.4446 89.5795C59.6226 89.3409 59.8764 89.1288 60.206 88.9432C60.5393 88.7538 60.9901 88.6591 61.5582 88.6591C62.2931 88.6591 62.9408 88.8428 63.5014 89.2102C64.062 89.5777 64.4995 90.0985 64.8139 90.7727C65.1283 91.447 65.2855 92.2424 65.2855 93.1591C65.2855 94.0833 65.1283 94.8845 64.8139 95.5625C64.4995 96.2367 64.0639 96.7595 63.5071 97.1307C62.9503 97.4981 62.3082 97.6818 61.581 97.6818C61.0204 97.6818 60.5715 97.589 60.2344 97.4034C59.8973 97.214 59.6378 97 59.456 96.7614C59.2741 96.5189 59.134 96.3182 59.0355 96.1591H58.8764V97.5H57.581ZM58.8991 93.1364C58.8991 93.7955 58.9957 94.3769 59.1889 94.8807C59.3821 95.3807 59.6643 95.7727 60.0355 96.0568C60.4067 96.3371 60.8613 96.4773 61.3991 96.4773C61.9598 96.4773 62.4276 96.3295 62.8026 96.0341C63.1813 95.7348 63.4654 95.3333 63.6548 94.8295C63.848 94.322 63.9446 93.7576 63.9446 93.1364C63.9446 92.5227 63.8499 91.9697 63.6605 91.4773C63.4749 90.9811 63.1927 90.589 62.8139 90.3011C62.4389 90.0095 61.9673 89.8636 61.3991 89.8636C60.8537 89.8636 60.3954 90.0019 60.0241 90.2784C59.6529 90.5511 59.3726 90.9337 59.1832 91.4261C58.9938 91.9148 58.8991 92.4848 58.8991 93.1364ZM70.6832 97.6818C69.8423 97.6818 69.117 97.4962 68.5071 97.125C67.901 96.75 67.4332 96.2273 67.1037 95.5568C66.7779 94.8826 66.6151 94.0985 66.6151 93.2045C66.6151 92.3106 66.7779 91.5227 67.1037 90.8409C67.4332 90.1553 67.8916 89.6212 68.4787 89.2386C69.0696 88.8523 69.759 88.6591 70.5469 88.6591C71.0014 88.6591 71.4503 88.7348 71.8935 88.8864C72.3366 89.0379 72.7401 89.2841 73.1037 89.625C73.4673 89.9621 73.7571 90.4091 73.973 90.9659C74.1889 91.5227 74.2969 92.2083 74.2969 93.0227V93.5909H67.5696V92.4318H72.9332C72.9332 91.9394 72.8348 91.5 72.6378 91.1136C72.4446 90.7273 72.1681 90.4223 71.8082 90.1989C71.4522 89.9754 71.0317 89.8636 70.5469 89.8636C70.0128 89.8636 69.5507 89.9962 69.1605 90.2614C68.7741 90.5227 68.4768 90.8636 68.2685 91.2841C68.0601 91.7045 67.956 92.1553 67.956 92.6364V93.4091C67.956 94.0682 68.0696 94.6269 68.2969 95.0852C68.5279 95.5398 68.848 95.8864 69.2571 96.125C69.6662 96.3598 70.1416 96.4773 70.6832 96.4773C71.0355 96.4773 71.3537 96.428 71.6378 96.3295C71.9257 96.2273 72.1738 96.0758 72.3821 95.875C72.5904 95.6705 72.7514 95.4167 72.8651 95.1136L74.1605 95.4773C74.0241 95.9167 73.795 96.303 73.473 96.6364C73.151 96.9659 72.7533 97.2235 72.2798 97.4091C71.8063 97.5909 71.2741 97.6818 70.6832 97.6818ZM79.8196 88.7727V89.9091H75.2969V88.7727H79.8196ZM76.6151 86.6818H77.956V95C77.956 95.3788 78.0109 95.6629 78.1207 95.8523C78.2344 96.0379 78.3783 96.1629 78.5526 96.2273C78.7306 96.2879 78.9181 96.3182 79.1151 96.3182C79.2628 96.3182 79.384 96.3106 79.4787 96.2955C79.5734 96.2765 79.6491 96.2614 79.706 96.25L79.9787 97.4545C79.8878 97.4886 79.7609 97.5227 79.598 97.5568C79.4351 97.5947 79.2287 97.6136 78.9787 97.6136C78.5999 97.6136 78.2287 97.5322 77.8651 97.3693C77.5052 97.2064 77.206 96.9583 76.9673 96.625C76.7325 96.2917 76.6151 95.8712 76.6151 95.3636V86.6818ZM89.5071 88.7727V89.9091H84.9844V88.7727H89.5071ZM86.3026 86.6818H87.6435V95C87.6435 95.3788 87.6984 95.6629 87.8082 95.8523C87.9219 96.0379 88.0658 96.1629 88.2401 96.2273C88.4181 96.2879 88.6056 96.3182 88.8026 96.3182C88.9503 96.3182 89.0715 96.3106 89.1662 96.2955C89.2609 96.2765 89.3366 96.2614 89.3935 96.25L89.6662 97.4545C89.5753 97.4886 89.4484 97.5227 89.2855 97.5568C89.1226 97.5947 88.9162 97.6136 88.6662 97.6136C88.2874 97.6136 87.9162 97.5322 87.5526 97.3693C87.1927 97.2064 86.8935 96.9583 86.6548 96.625C86.42 96.2917 86.3026 95.8712 86.3026 95.3636V86.6818ZM94.6634 97.6818C93.8755 97.6818 93.1842 97.4943 92.5895 97.1193C91.9986 96.7443 91.5365 96.2197 91.2031 95.5455C90.8736 94.8712 90.7088 94.0833 90.7088 93.1818C90.7088 92.2727 90.8736 91.4792 91.2031 90.8011C91.5365 90.1231 91.9986 89.5966 92.5895 89.2216C93.1842 88.8466 93.8755 88.6591 94.6634 88.6591C95.4512 88.6591 96.1406 88.8466 96.7315 89.2216C97.3262 89.5966 97.7884 90.1231 98.1179 90.8011C98.4512 91.4792 98.6179 92.2727 98.6179 93.1818C98.6179 94.0833 98.4512 94.8712 98.1179 95.5455C97.7884 96.2197 97.3262 96.7443 96.7315 97.1193C96.1406 97.4943 95.4512 97.6818 94.6634 97.6818ZM94.6634 96.4773C95.2618 96.4773 95.7543 96.3239 96.1406 96.017C96.527 95.7102 96.813 95.3068 96.9986 94.8068C97.1842 94.3068 97.277 93.7652 97.277 93.1818C97.277 92.5985 97.1842 92.0549 96.9986 91.5511C96.813 91.0473 96.527 90.6402 96.1406 90.3295C95.7543 90.0189 95.2618 89.8636 94.6634 89.8636C94.0649 89.8636 93.5724 90.0189 93.1861 90.3295C92.7997 90.6402 92.5137 91.0473 92.3281 91.5511C92.1425 92.0549 92.0497 92.5985 92.0497 93.1818C92.0497 93.7652 92.1425 94.3068 92.3281 94.8068C92.5137 95.3068 92.7997 95.7102 93.1861 96.017C93.5724 96.3239 94.0649 96.4773 94.6634 96.4773ZM110.722 90.7273L109.517 91.0682C109.441 90.8674 109.33 90.6723 109.182 90.483C109.038 90.2898 108.841 90.1307 108.591 90.0057C108.341 89.8807 108.021 89.8182 107.631 89.8182C107.097 89.8182 106.652 89.9413 106.295 90.1875C105.943 90.4299 105.767 90.7386 105.767 91.1136C105.767 91.447 105.888 91.7102 106.131 91.9034C106.373 92.0966 106.752 92.2576 107.267 92.3864L108.562 92.7045C109.343 92.8939 109.924 93.1837 110.307 93.5739C110.689 93.9602 110.881 94.4583 110.881 95.0682C110.881 95.5682 110.737 96.0152 110.449 96.4091C110.165 96.803 109.767 97.1136 109.256 97.3409C108.744 97.5682 108.15 97.6818 107.472 97.6818C106.581 97.6818 105.845 97.4886 105.261 97.1023C104.678 96.7159 104.309 96.1515 104.153 95.4091L105.426 95.0909C105.547 95.5606 105.777 95.9129 106.114 96.1477C106.455 96.3826 106.9 96.5 107.449 96.5C108.074 96.5 108.57 96.3674 108.938 96.1023C109.309 95.8333 109.494 95.5114 109.494 95.1364C109.494 94.8333 109.388 94.5795 109.176 94.375C108.964 94.1667 108.638 94.0114 108.199 93.9091L106.744 93.5682C105.945 93.3788 105.358 93.0852 104.983 92.6875C104.612 92.286 104.426 91.7841 104.426 91.1818C104.426 90.6894 104.564 90.2538 104.841 89.875C105.121 89.4962 105.502 89.1989 105.983 88.983C106.468 88.767 107.017 88.6591 107.631 88.6591C108.494 88.6591 109.172 88.8485 109.665 89.2273C110.161 89.6061 110.513 90.1061 110.722 90.7273ZM116.382 88.7727V89.9091H111.859V88.7727H116.382ZM113.178 86.6818H114.518V95C114.518 95.3788 114.573 95.6629 114.683 95.8523C114.797 96.0379 114.941 96.1629 115.115 96.2273C115.293 96.2879 115.481 96.3182 115.678 96.3182C115.825 96.3182 115.946 96.3106 116.041 96.2955C116.136 96.2765 116.212 96.2614 116.268 96.25L116.541 97.4545C116.45 97.4886 116.323 97.5227 116.161 97.5568C115.998 97.5947 115.791 97.6136 115.541 97.6136C115.162 97.6136 114.791 97.5322 114.428 97.3693C114.068 97.2064 113.768 96.9583 113.53 96.625C113.295 96.2917 113.178 95.8712 113.178 95.3636V86.6818ZM120.655 97.7045C120.102 97.7045 119.6 97.6004 119.149 97.392C118.698 97.1799 118.34 96.875 118.075 96.4773C117.81 96.0758 117.678 95.5909 117.678 95.0227C117.678 94.5227 117.776 94.1174 117.973 93.8068C118.17 93.4924 118.433 93.2462 118.763 93.0682C119.092 92.8902 119.456 92.7576 119.854 92.6705C120.255 92.5795 120.659 92.5076 121.064 92.4545C121.594 92.3864 122.024 92.3352 122.354 92.3011C122.687 92.2633 122.929 92.2008 123.081 92.1136C123.236 92.0265 123.314 91.875 123.314 91.6591V91.6136C123.314 91.053 123.161 90.6174 122.854 90.3068C122.551 89.9962 122.09 89.8409 121.473 89.8409C120.833 89.8409 120.331 89.9811 119.967 90.2614C119.604 90.5417 119.348 90.8409 119.2 91.1591L117.928 90.7045C118.155 90.1742 118.458 89.7614 118.837 89.4659C119.219 89.1667 119.636 88.9583 120.087 88.8409C120.541 88.7197 120.988 88.6591 121.428 88.6591C121.708 88.6591 122.03 88.6932 122.393 88.7614C122.761 88.8258 123.115 88.9602 123.456 89.1648C123.801 89.3693 124.087 89.678 124.314 90.0909C124.541 90.5038 124.655 91.0568 124.655 91.75V97.5H123.314V96.3182H123.246C123.155 96.5076 123.003 96.7102 122.791 96.9261C122.579 97.142 122.297 97.3258 121.945 97.4773C121.592 97.6288 121.162 97.7045 120.655 97.7045ZM120.859 96.5C121.39 96.5 121.837 96.3958 122.2 96.1875C122.568 95.9792 122.844 95.7102 123.03 95.3807C123.219 95.0511 123.314 94.7045 123.314 94.3409V93.1136C123.257 93.1818 123.132 93.2443 122.939 93.3011C122.75 93.3542 122.53 93.4015 122.28 93.4432C122.034 93.4811 121.793 93.5152 121.558 93.5455C121.327 93.572 121.14 93.5947 120.996 93.6136C120.647 93.6591 120.321 93.733 120.018 93.8352C119.719 93.9337 119.477 94.0833 119.291 94.2841C119.109 94.4811 119.018 94.75 119.018 95.0909C119.018 95.5568 119.191 95.9091 119.536 96.1477C119.884 96.3826 120.325 96.5 120.859 96.5ZM126.79 97.5V88.7727H128.085V90.0909H128.176C128.335 89.6591 128.623 89.3087 129.04 89.0398C129.456 88.7708 129.926 88.6364 130.449 88.6364C130.547 88.6364 130.67 88.6383 130.818 88.642C130.966 88.6458 131.078 88.6515 131.153 88.6591V90.0227C131.108 90.0114 131.004 89.9943 130.841 89.9716C130.682 89.9451 130.513 89.9318 130.335 89.9318C129.911 89.9318 129.532 90.0208 129.199 90.1989C128.869 90.3731 128.608 90.6155 128.415 90.9261C128.225 91.233 128.131 91.5833 128.131 91.9773V97.5H126.79ZM136.773 88.7727V89.9091H132.25V88.7727H136.773ZM133.568 86.6818H134.909V95C134.909 95.3788 134.964 95.6629 135.074 95.8523C135.188 96.0379 135.331 96.1629 135.506 96.2273C135.684 96.2879 135.871 96.3182 136.068 96.3182C136.216 96.3182 136.337 96.3106 136.432 96.2955C136.527 96.2765 136.602 96.2614 136.659 96.25L136.932 97.4545C136.841 97.4886 136.714 97.5227 136.551 97.5568C136.388 97.5947 136.182 97.6136 135.932 97.6136C135.553 97.6136 135.182 97.5322 134.818 97.3693C134.458 97.2064 134.159 96.9583 133.92 96.625C133.686 96.2917 133.568 95.8712 133.568 95.3636V86.6818Z" fill="#62748E"/>
</svg>
